<svg width="18" height="24" viewBox="0 0 18 24" fill="none" xmlns="http://www.w3.org/2000/svg">
<path fill-rule="evenodd" clip-rule="evenodd" d="M12.5425 0.187721C20.3535 -1.41231 15.3544 7.67026 12.9244 10.2115C14.5907 11.9527 16.2917 14.3998 17.0208 17.1763C18.3747 22.2588 15.042 23.0117 12.5425 21.7411C9.79998 20.4234 7.36988 17.5998 5.77301 14.3057C5.3217 14.3057 4.83569 14.2115 4.38438 14.0233C5.287 17.5057 5.66887 21.0823 5.42584 24C5.42584 18.1175 3.37764 12.2821 0.426829 7.43491C-0.614631 5.74078 0.461546 4.47016 1.39886 6.11726C2.02983 7.31011 2.60939 8.55143 3.13463 9.83496C4.14137 5.03488 9.14038 0.84656 12.5425 0.187721ZM11.4316 8.84671C12.9591 7.57609 17.6109 0.752442 13.2715 1.36422C10.772 1.7407 7.7518 4.8937 6.502 6.91728C8.23781 6.63492 10.0083 7.67026 11.4316 8.84671ZM6.4673 8.42317C7.6476 8.28199 8.9321 9.12907 9.90412 9.97614C8.96679 10.5879 7.92533 10.9644 6.84917 11.0586C5.25225 11.0586 4.93983 8.61143 6.4673 8.42317ZM7.1269 14.1174C8.51553 16.2351 10.4249 18.3057 12.4731 19.0587C13.6534 19.4823 14.9725 19.294 14.4865 16.9881C14.0005 14.8704 12.7508 12.988 11.5357 11.5762C11.1886 11.9056 10.8067 12.235 10.4249 12.4704C9.38341 13.2704 8.2725 13.8351 7.1269 14.1174Z" fill="#F5A623"/>
</svg>
