<svg width="23" height="18" viewBox="0 0 23 18" fill="none" xmlns="http://www.w3.org/2000/svg">
<path d="M22.81 4.23627C22.9261 6.39266 21.4967 8.24104 19.5135 8.79551C19.4867 8.81314 19.4688 8.82193 19.4509 8.83073C17.5123 9.34123 16.0829 11.084 16.0829 13.1611C16.0829 13.1788 16.0651 13.2052 16.0472 13.2316C15.7703 15.4408 13.8495 17.1483 11.5357 17.1483H11.4464C9.13256 17.1483 7.21183 15.4408 6.93489 13.2316C6.90811 13.1963 6.89916 13.1788 6.89916 13.1611C6.89916 11.0928 5.46978 9.34123 3.53118 8.83073C3.51332 8.82193 3.49545 8.81314 3.46867 8.79551C1.48538 8.24104 0.0560015 6.39266 0.172125 4.23627C0.288288 2.00063 2.11072 0.169881 4.37986 0.0114504C7.0421 -0.173385 9.25764 1.90381 9.25764 4.48269C9.25764 4.50911 9.25764 4.54433 9.25764 4.57071C9.38271 5.53009 9.81151 6.41908 10.4726 7.10558C11.0265 7.67773 11.9467 7.67773 12.5006 7.10558C13.1617 6.41908 13.5994 5.53009 13.7155 4.57071C13.7155 4.54433 13.7155 4.50911 13.7155 4.48269C13.7155 1.90381 15.9311 -0.173385 18.5933 0.0114504C20.8535 0.169881 22.6849 2.00063 22.81 4.23627Z" fill="#00B8C2"/>
</svg>
