<svg width="26" height="24" viewBox="0 0 26 24" fill="none" xmlns="http://www.w3.org/2000/svg">
<path d="M22.5256 0.000962694H1.31898C0.600456 0.000962694 0.00100966 0.578483 0.00100966 1.27343V3.55464C0.00100966 4.26691 0.600456 4.82903 1.31999 4.82903H22.5246C23.2613 4.82903 23.8436 4.24959 23.8608 3.5556V1.2898C23.8608 0.579445 23.2613 0 22.5256 0V0.000962694ZM22.5256 12.6987H1.31898C1.14538 12.699 0.973566 12.7322 0.8135 12.7963C0.653435 12.8604 0.508302 12.9542 0.386512 13.0722C0.138567 13.312 -0.000302547 13.6353 4.94933e-07 13.9721V16.2533C4.94933e-07 16.9656 0.599446 17.5268 1.31898 17.5268H22.5236C23.2603 17.5268 23.8426 16.9647 23.8598 16.2543V13.9721C23.8598 13.2608 23.2603 12.6987 22.5246 12.6987H22.5256ZM13.2585 19.0322H1.31999C0.969811 19.0322 0.633758 19.166 0.387521 19.4047C0.139576 19.6445 0.000706621 19.9678 0.00100966 20.3047V22.5859C0.00100966 23.2981 0.600456 23.8593 1.31999 23.8593H13.2413C13.978 23.8593 14.5603 23.2818 14.5603 22.5868V20.3047C14.5647 20.1389 14.5343 19.9741 14.4709 19.8197C14.4075 19.6654 14.3123 19.5247 14.191 19.4061C14.0696 19.2874 13.9246 19.1931 13.7645 19.1287C13.6043 19.0643 13.4323 19.0312 13.2585 19.0312V19.0322ZM23.8608 6.34887H1.31999C0.969811 6.34887 0.633758 6.48363 0.387521 6.72138C0.139331 6.96143 0.000440885 7.28517 0.00100966 7.62231V9.90351C0.00100966 10.6148 0.600456 11.1769 1.31999 11.1769H23.8446C24.5813 11.1769 25.1626 10.5985 25.1626 9.90351V7.62231C25.1655 7.45697 25.1341 7.29272 25.0701 7.13903C25.0062 6.98534 24.9109 6.84525 24.7899 6.72686C24.6689 6.60847 24.5244 6.51411 24.365 6.44923C24.2055 6.38436 24.0341 6.35025 23.8608 6.34887Z" fill="#00C3F7"/>
</svg>
